<svg xmlns="http://www.w3.org/2000/svg" viewBox="0 0 1400 900"><defs><linearGradient id="bg" x1="0" y1="0" x2="1" y2="1"><stop stop-color="#061225"/><stop offset=".6" stop-color="#123a7a"/><stop offset="1" stop-color="#be123c"/></linearGradient><radialGradient id="r" cx="72%" cy="22%" r="70%"><stop stop-color="#38bdf8" stop-opacity=".65"/><stop offset="1" stop-color="#38bdf8" stop-opacity="0"/></radialGradient></defs><rect width="1400" height="900" fill="url(#bg)"/><rect width="1400" height="900" fill="url(#r)"/><g opacity=".22" stroke="#fff" stroke-width="2"><path d="M0 720c160-80 330-120 520-110 220 12 360 105 560 96 130-6 224-50 320-112" fill="none"/><path d="M0 760c180-75 366-98 544-74 212 29 355 100 552 74 126-16 214-61 304-112" fill="none"/></g><g transform="translate(170 360)"><rect x="0" y="92" width="930" height="230" rx="24" fill="#f8fafc" opacity=".9"/><rect x="55" y="0" width="820" height="145" rx="28" fill="#e2e8f0"/><rect x="105" y="50" width="88" height="80" rx="12" fill="#0ea5e9"/><rect x="230" y="50" width="88" height="80" rx="12" fill="#0ea5e9"/><rect x="355" y="50" width="88" height="80" rx="12" fill="#0ea5e9"/><rect x="480" y="50" width="88" height="80" rx="12" fill="#0ea5e9"/><rect x="605" y="50" width="88" height="80" rx="12" fill="#0ea5e9"/><rect x="730" y="50" width="88" height="80" rx="12" fill="#0ea5e9"/><rect x="410" y="205" width="120" height="117" rx="14" fill="#061225"/><path d="M0 92h930" stroke="#be123c" stroke-width="10"/></g><text x="700" y="170" text-anchor="middle" font-family="Inter,Arial,sans-serif" font-size="82" font-weight="900" fill="#fff" opacity=".9">To lead with Integrity</text></svg>